<svg id="visual" viewBox="0 0 900 600" width="900" height="600" xmlns="http://www.w3.org/2000/svg" xmlns:xlink="http://www.w3.org/1999/xlink" version="1.1"><rect x="0" y="0" width="900" height="600" fill="#ffffff"></rect><path d="M0 50L21.5 49.3C43 48.7 86 47.3 128.8 45.8C171.7 44.3 214.3 42.7 257.2 40.5C300 38.3 343 35.7 385.8 37C428.7 38.3 471.3 43.7 514.2 45.8C557 48 600 47 642.8 45.7C685.7 44.3 728.3 42.7 771.2 41.3C814 40 857 39 878.5 38.5L900 38L900 0L878.5 0C857 0 814 0 771.2 0C728.3 0 685.7 0 642.8 0C600 0 557 0 514.2 0C471.3 0 428.7 0 385.8 0C343 0 300 0 257.2 0C214.3 0 171.7 0 128.8 0C86 0 43 0 21.5 0L0 0Z" fill="#0f505a"></path><path d="M0 33L21.5 31.7C43 30.3 86 27.7 128.8 28C171.7 28.3 214.3 31.7 257.2 31.7C300 31.7 343 28.3 385.8 27.7C428.7 27 471.3 29 514.2 29.3C557 29.7 600 28.3 642.8 28.7C685.7 29 728.3 31 771.2 33C814 35 857 37 878.5 38L900 39L900 0L878.5 0C857 0 814 0 771.2 0C728.3 0 685.7 0 642.8 0C600 0 557 0 514.2 0C471.3 0 428.7 0 385.8 0C343 0 300 0 257.2 0C214.3 0 171.7 0 128.8 0C86 0 43 0 21.5 0L0 0Z" fill="#216c78"></path><path d="M0 19L21.5 20C43 21 86 23 128.8 22.7C171.7 22.3 214.3 19.7 257.2 20C300 20.3 343 23.7 385.8 23.5C428.7 23.3 471.3 19.7 514.2 18.2C557 16.7 600 17.3 642.8 17.7C685.7 18 728.3 18 771.2 18.5C814 19 857 20 878.5 20.5L900 21L900 0L878.5 0C857 0 814 0 771.2 0C728.3 0 685.7 0 642.8 0C600 0 557 0 514.2 0C471.3 0 428.7 0 385.8 0C343 0 300 0 257.2 0C214.3 0 171.7 0 128.8 0C86 0 43 0 21.5 0L0 0Z" fill="#338a97"></path><path d="M0 15L21.5 14.7C43 14.3 86 13.7 128.8 12C171.7 10.3 214.3 7.7 257.2 6.7C300 5.7 343 6.3 385.8 7.8C428.7 9.3 471.3 11.7 514.2 12.5C557 13.3 600 12.7 642.8 12.3C685.7 12 728.3 12 771.2 11.5C814 11 857 10 878.5 9.5L900 9L900 0L878.5 0C857 0 814 0 771.2 0C728.3 0 685.7 0 642.8 0C600 0 557 0 514.2 0C471.3 0 428.7 0 385.8 0C343 0 300 0 257.2 0C214.3 0 171.7 0 128.8 0C86 0 43 0 21.5 0L0 0Z" fill="#45a8b7"></path></svg>