<svg id="visual" viewBox="0 0 900 600" width="900" height="600" xmlns="http://www.w3.org/2000/svg" xmlns:xlink="http://www.w3.org/1999/xlink" version="1.1"><rect x="0" y="0" width="900" height="600" fill="#FFFFFF"></rect><path d="M0 123L30 129.7C60 136.3 120 149.7 180 159.8C240 170 300 177 360 168C420 159 480 134 540 128.8C600 123.7 660 138.3 720 150.2C780 162 840 171 870 175.5L900 180L900 0L870 0C840 0 780 0 720 0C660 0 600 0 540 0C480 0 420 0 360 0C300 0 240 0 180 0C120 0 60 0 30 0L0 0Z" fill="#2ca9bc" stroke-linecap="round" stroke-linejoin="miter"></path></svg>