<svg width="324" height="416" viewBox="0 0 324 416" fill="none" xmlns="http://www.w3.org/2000/svg">
<g clip-path="url(#clip0_4_2)">
<rect width="324" height="416" fill="#2CA9BC"/>
<path d="M85.7224 55.3765L70.2707 55.0933L70.5539 39.6417C70.593 37.5073 68.8962 35.7471 66.7618 35.708L51.3102 35.4248C49.1758 35.3857 47.4155 37.0846 47.3765 39.2169L47.0933 54.6685L31.6416 54.3854C29.5072 54.3462 27.747 56.0451 27.7079 58.1775L27.4247 73.6291C27.3856 75.7635 29.0845 77.5237 31.2168 77.5628L46.6685 77.846L46.3853 93.2976C46.3462 95.432 48.0451 97.1923 50.1774 97.2314L65.6291 97.5145C67.7635 97.5537 69.5237 95.8547 69.5628 93.7224L69.846 78.2708L85.2976 78.554C87.4299 78.593 89.1922 76.8962 89.2313 74.7618L89.5145 59.3102C89.5536 57.1758 87.8547 55.4156 85.7224 55.3765Z" fill="#3B7C8A" fill-opacity="0.25"/>
<path d="M320.722 132.376L305.271 132.093L305.554 116.642C305.593 114.507 303.896 112.747 301.762 112.708L286.31 112.425C284.176 112.386 282.416 114.085 282.376 116.217L282.093 131.669L266.642 131.385C264.507 131.346 262.747 133.045 262.708 135.177L262.425 150.629C262.386 152.763 264.085 154.524 266.217 154.563L281.668 154.846L281.385 170.298C281.346 172.432 283.045 174.192 285.177 174.231L300.629 174.515C302.763 174.554 304.524 172.855 304.563 170.722L304.846 155.271L320.298 155.554C322.43 155.593 324.192 153.896 324.231 151.762L324.514 136.31C324.554 134.176 322.855 132.416 320.722 132.376Z" fill="#3B7C8A" fill-opacity="0.25"/>
<path d="M83.0716 390.072L53.2374 378.486L64.8237 348.652C66.4241 344.531 64.3828 339.897 60.2617 338.297L30.4275 326.711C26.3064 325.11 21.6713 327.156 20.0724 331.273L8.48616 361.107L-21.348 349.521C-25.4691 347.92 -30.1042 349.965 -31.7031 354.083L-43.2894 383.917C-44.8898 388.038 -42.8445 392.673 -38.7274 394.272L-8.89322 405.858L-20.4795 435.692C-22.0799 439.813 -20.0346 444.448 -15.9175 446.047L13.9167 457.634C18.0378 459.234 22.6729 457.189 24.2718 453.072L35.858 423.237L65.6922 434.824C69.8093 436.423 74.4469 434.383 76.0473 430.262L87.6336 400.428C89.234 396.306 87.1887 391.671 83.0716 390.072Z" fill="#3B7C8A" fill-opacity="0.5"/>
<g opacity="0.34" filter="url(#filter0_d_4_2)">
<path d="M230.406 73.5409C231.466 73.539 232.515 73.328 233.494 72.9199C234.472 72.5119 235.36 71.9149 236.108 71.163C236.855 70.4111 237.447 69.5192 237.849 68.5384C238.251 67.5575 238.455 66.507 238.451 65.4469L238.395 47.2112C238.389 45.071 237.532 43.0212 236.014 41.5125C234.496 40.0038 232.441 39.1599 230.301 39.1664C228.161 39.173 226.111 40.0294 224.603 41.5473C223.094 43.0652 222.25 45.1203 222.257 47.2604L222.312 65.4962C222.314 66.5562 222.525 67.6055 222.933 68.5839C223.341 69.5623 223.938 70.4506 224.69 71.1978C225.442 71.9451 226.334 72.5367 227.315 72.9388C228.296 73.3409 229.346 73.5455 230.406 73.5409Z" fill="#3B7C8A"/>
<path d="M222.284 56.3783L222.257 47.2604C222.25 45.1203 223.094 43.0652 224.603 41.5473C226.111 40.0294 228.161 39.173 230.301 39.1664C232.441 39.1599 234.496 40.0038 236.014 41.5125C237.532 43.0212 238.389 45.071 238.395 47.2112L238.423 56.329L222.284 56.3783Z" fill="#5AC3DA"/>
</g>
<g opacity="0.25" filter="url(#filter1_d_4_2)">
<path d="M63.6919 192.869C65.4754 195.968 67.8527 198.684 70.6875 200.862C73.5223 203.04 76.7589 204.637 80.2121 205.562C83.6652 206.488 87.2669 206.723 90.8109 206.254C94.355 205.785 97.7717 204.621 100.865 202.83L154.124 172.081C160.375 168.472 164.936 162.528 166.804 155.557C168.672 148.586 167.694 141.158 164.085 134.907C160.476 128.657 154.533 124.096 147.561 122.228C140.59 120.36 133.162 121.338 126.911 124.947L73.6525 155.696C70.5543 157.479 67.8383 159.857 65.6603 162.691C63.4822 165.526 61.8848 168.763 60.9595 172.216C60.0343 175.669 59.7994 179.271 60.2682 182.815C60.7371 186.359 61.9005 189.776 63.6919 192.869Z" fill="#3B7C8A"/>
<path d="M100.282 140.321L126.911 124.947C133.162 121.338 140.59 120.36 147.561 122.228C154.533 124.096 160.476 128.657 164.085 134.907C167.694 141.158 168.672 148.586 166.804 155.557C164.936 162.528 160.375 168.472 154.124 172.081L127.495 187.455L100.282 140.321Z" fill="#5AC3DA"/>
</g>
<g opacity="0.3" filter="url(#filter2_d_4_2)">
<path d="M181.993 334.935C184.559 334.987 187.09 334.532 189.443 333.596C191.795 332.661 193.922 331.263 195.702 329.483C197.482 327.703 198.88 325.576 199.815 323.224C200.751 320.871 201.206 318.34 201.154 315.774L200.318 271.637C200.22 266.458 198.068 261.451 194.336 257.719C190.604 253.987 185.597 251.835 180.417 251.737C175.238 251.639 170.309 253.602 166.716 257.196C163.122 260.789 161.159 265.718 161.257 270.898L162.093 315.034C162.138 317.6 162.689 320.151 163.714 322.54C164.74 324.93 166.219 327.111 168.067 328.96C169.916 330.809 172.098 332.288 174.487 333.313C176.877 334.338 179.427 334.889 181.993 334.935Z" fill="#3B7C8A"/>
<path d="M161.675 292.966L161.257 270.898C161.159 265.718 163.122 260.789 166.716 257.196C170.309 253.602 175.238 251.639 180.417 251.737C185.597 251.835 190.604 253.987 194.336 257.719C198.068 261.451 200.22 266.458 200.318 271.637L200.736 293.706L161.675 292.966Z" fill="#5AC3DA"/>
</g>
<g opacity="0.25" filter="url(#filter3_d_4_2)">
<path d="M252.47 412.03C255.833 414.347 259.596 415.96 263.541 416.779C267.486 417.597 271.537 417.603 275.461 416.798C279.386 415.992 283.106 414.39 286.411 412.084C289.715 409.778 292.537 406.813 294.716 403.358L332.276 343.981C336.683 337.012 338.211 328.475 336.522 320.246C334.833 312.017 330.066 304.772 323.269 300.103C316.473 295.434 308.203 293.725 300.281 295.351C292.358 296.978 285.431 301.806 281.023 308.775L243.463 368.152C241.276 371.601 239.773 375.473 239.042 379.546C238.31 383.62 238.365 387.814 239.201 391.89C240.038 395.966 241.64 399.843 243.917 403.299C246.194 406.755 249.1 409.722 252.47 412.03Z" fill="#3B7C8A"/>
<path d="M262.243 338.463L281.023 308.775C285.431 301.806 292.358 296.978 300.281 295.351C308.203 293.725 316.473 295.434 323.269 300.103C330.066 304.772 334.833 312.017 336.522 320.246C338.211 328.475 336.683 337.012 332.276 343.981L313.496 373.669L262.243 338.463Z" fill="#5AC3DA"/>
</g>
</g>
<defs>
<filter id="filter0_d_4_2" x="199" y="29" width="62.7073" height="62.7073" filterUnits="userSpaceOnUse" color-interpolation-filters="sRGB">
<feFlood flood-opacity="0" result="BackgroundImageFix"/>
<feColorMatrix in="SourceAlpha" type="matrix" values="0 0 0 0 0 0 0 0 0 0 0 0 0 0 0 0 0 0 127 0" result="hardAlpha"/>
<feOffset dy="4"/>
<feGaussianBlur stdDeviation="2"/>
<feComposite in2="hardAlpha" operator="out"/>
<feColorMatrix type="matrix" values="0 0 0 0 0 0 0 0 0 0 0 0 0 0 0 0 0 0 0.25 0"/>
<feBlend mode="normal" in2="BackgroundImageFix" result="effect1_dropShadow_4_2"/>
<feBlend mode="normal" in="SourceGraphic" in2="effect1_dropShadow_4_2" result="shape"/>
</filter>
<filter id="filter1_d_4_2" x="30" y="84" width="167.777" height="167.777" filterUnits="userSpaceOnUse" color-interpolation-filters="sRGB">
<feFlood flood-opacity="0" result="BackgroundImageFix"/>
<feColorMatrix in="SourceAlpha" type="matrix" values="0 0 0 0 0 0 0 0 0 0 0 0 0 0 0 0 0 0 127 0" result="hardAlpha"/>
<feOffset dy="4"/>
<feGaussianBlur stdDeviation="2"/>
<feComposite in2="hardAlpha" operator="out"/>
<feColorMatrix type="matrix" values="0 0 0 0 0 0 0 0 0 0 0 0 0 0 0 0 0 0 0.25 0"/>
<feBlend mode="normal" in2="BackgroundImageFix" result="effect1_dropShadow_4_2"/>
<feBlend mode="normal" in="SourceGraphic" in2="effect1_dropShadow_4_2" result="shape"/>
</filter>
<filter id="filter2_d_4_2" x="111" y="227.131" width="140.41" height="140.41" filterUnits="userSpaceOnUse" color-interpolation-filters="sRGB">
<feFlood flood-opacity="0" result="BackgroundImageFix"/>
<feColorMatrix in="SourceAlpha" type="matrix" values="0 0 0 0 0 0 0 0 0 0 0 0 0 0 0 0 0 0 127 0" result="hardAlpha"/>
<feOffset dy="4"/>
<feGaussianBlur stdDeviation="2"/>
<feComposite in2="hardAlpha" operator="out"/>
<feColorMatrix type="matrix" values="0 0 0 0 0 0 0 0 0 0 0 0 0 0 0 0 0 0 0.25 0"/>
<feBlend mode="normal" in2="BackgroundImageFix" result="effect1_dropShadow_4_2"/>
<feBlend mode="normal" in="SourceGraphic" in2="effect1_dropShadow_4_2" result="shape"/>
</filter>
<filter id="filter3_d_4_2" x="197" y="267" width="181.739" height="186.133" filterUnits="userSpaceOnUse" color-interpolation-filters="sRGB">
<feFlood flood-opacity="0" result="BackgroundImageFix"/>
<feColorMatrix in="SourceAlpha" type="matrix" values="0 0 0 0 0 0 0 0 0 0 0 0 0 0 0 0 0 0 127 0" result="hardAlpha"/>
<feOffset dy="4"/>
<feGaussianBlur stdDeviation="2"/>
<feComposite in2="hardAlpha" operator="out"/>
<feColorMatrix type="matrix" values="0 0 0 0 0 0 0 0 0 0 0 0 0 0 0 0 0 0 0.25 0"/>
<feBlend mode="normal" in2="BackgroundImageFix" result="effect1_dropShadow_4_2"/>
<feBlend mode="normal" in="SourceGraphic" in2="effect1_dropShadow_4_2" result="shape"/>
</filter>
<clipPath id="clip0_4_2">
<rect width="324" height="416" fill="white"/>
</clipPath>
</defs>
</svg>
