<svg width="50" height="50" viewBox="0 0 50 50" fill="none" xmlns="http://www.w3.org/2000/svg">
<g clip-path="url(#clip0_36_16)">
<path d="M47.7023 36.9667V48.1029C47.7023 49.1506 46.8531 50 45.8051 50H4.19474C3.14702 50 2.29761 49.1506 2.29761 48.1029V36.9667C2.29761 32.8312 5.08487 29.1852 9.07567 28.1008L18.1649 25.6307C18.9961 25.4046 19.8749 25.7671 20.3054 26.5128L24.9999 34.6436L29.6944 26.5128C30.125 25.7671 31.0047 25.4054 31.8349 25.6307L40.9242 28.1008C44.915 29.1852 47.7023 32.831 47.7023 36.9667ZM24.9999 0C19.6599 0 15.3155 5.18018 15.3155 11.5477C15.3155 17.915 19.6599 23.0954 25.0002 23.0954C30.3405 23.0954 34.6847 17.9152 34.6847 11.5477C34.6847 5.18018 30.3402 0 24.9999 0Z" fill="#2CA9BC"/>
</g>
<defs>
<clipPath id="clip0_36_16">
<rect width="50" height="50" fill="white"/>
</clipPath>
</defs>
</svg>
