<svg width="50" height="50" viewBox="0 0 50 50" fill="none" xmlns="http://www.w3.org/2000/svg">
<g clip-path="url(#clip0_36_106)">
<path fill-rule="evenodd" clip-rule="evenodd" d="M38.4616 46.1538C35.275 46.1538 32.6923 43.5712 32.6923 40.3846C32.6923 37.1981 35.275 34.6154 38.4616 34.6154C41.6481 34.6154 44.2308 37.1981 44.2308 40.3846C44.2308 43.5712 41.6481 46.1538 38.4616 46.1538ZM11.5385 30.7692C8.35194 30.7692 5.76925 28.1865 5.76925 25C5.76925 21.8154 8.35194 19.2308 11.5385 19.2308C14.725 19.2308 17.3077 21.8154 17.3077 25C17.3077 28.1865 14.725 30.7692 11.5385 30.7692ZM38.4616 3.84615C41.6481 3.84615 44.2308 6.42885 44.2308 9.61538C44.2308 12.8019 41.6481 15.3846 38.4616 15.3846C35.275 15.3846 32.6923 12.8019 32.6923 9.61538C32.6923 6.42885 35.275 3.84615 38.4616 3.84615ZM38.4616 30.7692C35.0577 30.7692 32.0865 32.5481 30.3769 35.2154L20.0789 29.3308C20.7443 28.0231 21.1539 26.5654 21.1539 25C21.1539 24.0327 20.9674 23.1173 20.702 22.2365L31.4154 16.1154C33.1712 18.0192 35.6673 19.2308 38.4616 19.2308C43.7731 19.2308 48.0769 14.9269 48.0769 9.61538C48.0769 4.30385 43.7731 0 38.4616 0C33.15 0 28.8462 4.30385 28.8462 9.61538C28.8462 10.5827 29.0327 11.4981 29.2981 12.3807L18.5846 18.5C16.8289 16.5981 14.3327 15.3846 11.5385 15.3846C6.22694 15.3846 1.9231 19.6885 1.9231 25C1.9231 30.3115 6.22694 34.6154 11.5385 34.6154C13.7308 34.6154 15.7288 33.8538 17.3462 32.6192L17.3077 32.6923L28.9519 39.3462C28.9135 39.6923 28.8462 40.0269 28.8462 40.3846C28.8462 45.6962 33.15 50 38.4616 50C43.7731 50 48.0769 45.6962 48.0769 40.3846C48.0769 35.0731 43.7731 30.7692 38.4616 30.7692Z" fill="#2CA9BC"/>
</g>
<defs>
<clipPath id="clip0_36_106">
<rect width="50" height="50" fill="white"/>
</clipPath>
</defs>
</svg>
