<svg id="visual" viewBox="0 0 900 600" width="900" height="600" xmlns="http://www.w3.org/2000/svg" xmlns:xlink="http://www.w3.org/1999/xlink" version="1.1"><path d="M0 97L82 37L164 103L245 43L327 55L409 43L491 91L573 67L655 85L736 85L818 43L900 67L900 0L818 0L736 0L655 0L573 0L491 0L409 0L327 0L245 0L164 0L82 0L0 0Z" fill="#2ca9bc"></path><path d="M0 187L82 175L164 337L245 277L327 217L409 121L491 301L573 163L655 241L736 223L818 265L900 169L900 65L818 41L736 83L655 83L573 65L491 89L409 41L327 53L245 41L164 101L82 35L0 95Z" fill="#6ebbc8"></path><path d="M0 253L82 271L164 385L245 349L327 331L409 211L491 343L573 289L655 301L736 283L818 337L900 271L900 167L818 263L736 221L655 239L573 161L491 299L409 119L327 215L245 275L164 335L82 173L0 185Z" fill="#9dccd5"></path><path d="M0 349L82 439L164 469L245 511L327 403L409 361L491 511L573 343L655 451L736 343L818 409L900 427L900 269L818 335L736 281L655 299L573 287L491 341L409 209L327 329L245 347L164 383L82 269L0 251Z" fill="#c7dde2"></path><path d="M0 601L82 601L164 601L245 601L327 601L409 601L491 601L573 601L655 601L736 601L818 601L900 601L900 425L818 407L736 341L655 449L573 341L491 509L409 359L327 401L245 509L164 467L82 437L0 347Z" fill="#efefef"></path></svg>