<svg id="visual" viewBox="0 0 900 600" width="900" height="600" xmlns="http://www.w3.org/2000/svg" xmlns:xlink="http://www.w3.org/1999/xlink" version="1.1"><rect x="0" y="0" width="900" height="600" fill="#FFFFFF"></rect><path d="M0 49L30 51.5C60 54 120 59 180 63C240 67 300 70 360 66.5C420 63 480 53 540 51C600 49 660 55 720 59.8C780 64.7 840 68.3 870 70.2L900 72L900 0L870 0C840 0 780 0 720 0C660 0 600 0 540 0C480 0 420 0 360 0C300 0 240 0 180 0C120 0 60 0 30 0L0 0Z" fill="#2ca9bc" stroke-linecap="round" stroke-linejoin="miter"></path></svg>