<svg width="50" height="50" viewBox="0 0 50 50" fill="none" xmlns="http://www.w3.org/2000/svg">
<g clip-path="url(#clip0_36_21)">
<path d="M8.33329 4.16669C6.04163 4.16669 4.16663 6.04169 4.16663 8.33335V35.4167C4.16663 37.7084 6.04163 39.5834 8.33329 39.5834H20.8333V41.6667H12.5V45.8334H37.5V41.6667H29.1666V39.5834H41.6666C43.9583 39.5834 45.8333 37.7084 45.8333 35.4167V8.33335C45.8333 6.04169 43.9583 4.16669 41.6666 4.16669H8.33329ZM8.33329 8.33335H41.6666V35.4167H8.33329V8.33335ZM25 10.4167C22.7083 10.4167 20.8333 12.2917 20.8333 14.5834C20.8333 16.875 22.7083 18.75 25 18.75C27.2916 18.75 29.1666 16.875 29.1666 14.5834C29.1666 12.2917 27.2916 10.4167 25 10.4167ZM20.8333 20.8334C18.5416 20.8334 16.6666 22.7084 16.6666 25V27.0834H33.3333V25C33.3333 22.7084 31.4583 20.8334 29.1666 20.8334H20.8333ZM10.4166 29.1667V33.3334H18.75V29.1667H10.4166ZM20.8333 29.1667V33.3334H29.1666V29.1667H20.8333ZM31.25 29.1667V33.3334H39.5833V29.1667H31.25Z" fill="#2CA9BC"/>
</g>
<defs>
<clipPath id="clip0_36_21">
<rect width="50" height="50" fill="white"/>
</clipPath>
</defs>
</svg>
